<?xml version="1.0" standalone="no"?>
<!DOCTYPE svg PUBLIC "-//W3C//DTD SVG 20010904//EN"
 "http://www.w3.org/TR/2001/REC-SVG-20010904/DTD/svg10.dtd">
<svg version="1.0" xmlns="http://www.w3.org/2000/svg"
 width="365.000000pt" height="138.000000pt" viewBox="0 0 365.000000 138.000000"
 preserveAspectRatio="xMidYMid meet">

<g transform="translate(0.000000,138.000000) scale(0.100000,-0.100000)"
fill="#000000" stroke="none">
<path d="M1060 807 c0 -316 5 -353 63 -429 22 -29 56 -55 101 -78 62 -31 77
-35 150 -35 121 0 199 43 279 155 14 20 19 22 24 10 3 -8 28 -38 55 -66 68
-72 130 -98 233 -98 91 0 146 19 208 73 l36 32 14 -33 c16 -38 42 -62 75 -72
20 -7 22 -4 22 32 0 22 -7 56 -15 76 -8 20 -18 63 -22 96 l-6 60 -42 0 c-41 0
-43 -1 -71 -57 -42 -83 -101 -118 -199 -118 -62 0 -78 4 -121 30 -54 34 -104
106 -122 175 -9 37 -7 47 21 103 45 87 94 120 188 125 84 5 140 -13 189 -61
34 -33 69 -99 70 -129 0 -15 9 -18 46 -18 l46 0 -6 38 c-19 106 -101 204 -205
243 -45 17 -71 20 -136 17 -108 -6 -193 -49 -247 -126 l-16 -23 -54 54 c-74
74 -144 100 -253 95 -77 -4 -176 -35 -175 -55 1 -4 11 -21 24 -37 l24 -29 41
17 c56 22 155 21 206 -3 56 -25 102 -76 121 -133 15 -45 15 -52 -2 -106 -13
-41 -32 -71 -69 -108 -53 -55 -97 -74 -170 -74 -47 0 -130 37 -162 71 -50 54
-53 78 -53 384 l0 285 -45 0 -45 0 0 -283z"/>
<path d="M2300 832 c0 -347 12 -407 101 -486 65 -59 120 -80 214 -80 102 -1
165 26 233 98 27 28 52 58 55 66 5 12 10 10 24 -10 33 -48 100 -106 149 -130
39 -19 66 -24 129 -24 71 -1 88 3 146 31 36 18 74 42 84 53 18 19 18 19 38
-21 18 -36 59 -69 87 -69 16 0 12 78 -6 106 -10 14 -19 54 -22 94 l-5 70 -46
0 c-45 0 -48 -2 -60 -35 -38 -107 -165 -167 -282 -135 -71 20 -151 113 -173
203 -16 66 50 173 128 208 50 23 150 25 199 4 73 -30 137 -109 137 -170 0 -23
3 -25 46 -25 l47 0 -6 45 c-13 92 -75 173 -170 222 -40 20 -71 27 -132 31
-109 6 -179 -21 -254 -95 -49 -50 -55 -53 -64 -36 -17 31 -78 81 -126 105 -38
19 -63 23 -141 23 -81 0 -103 -4 -149 -25 l-55 -26 30 -32 c29 -32 29 -32 69
-17 22 8 69 14 104 15 110 0 181 -49 223 -154 17 -45 17 -47 -2 -100 -49 -129
-137 -194 -251 -183 -79 7 -140 43 -176 105 l-28 47 -3 293 -3 292 -45 0 -44
0 0 -258z"/>
</g>
</svg>
